<svg
	xmlns="http://www.w3.org/2000/svg"
	xmlns:xlink="http://www.w3.org/1999/xlink"
	class="avitar"
	viewBox="-1.5 400 2559.667 3009.5"

	><g id="Base Image"
		><path
			d=" M 888 2236 C 887.167 2226.167 877.392 2194.108 875 2190 C 862.028 2167.726 836.716 2130.461 830 2110 Q 827.717 2103.045 930 2137 L 1286 2152 L 1521 2125 L 1686 2048 L 1754 1992 Q 1740.228 2060.852 1711 2110 Q 1707.141 2116.49 1682 2179 L 1676 2259 L 1676 2325 L 1541 2525 L 1361 2705 L 1082 2834 L 1020 2881 L 901 2781 L 799 2518 L 844 2314 L 880 2249 Q 889.25 2250.75 888 2236 Z "
			id="Neck"
			fill="rgb(233,198,174)"
		/><path
			d=" M 1757 1550 Q 1760.268 1542.03 1769 1538 C 1780.375 1532.75 1795.313 1530.188 1804 1531 C 1814.813 1534.313 1823.409 1541.559 1825 1545 C 1831.351 1558.734 1826.063 1570.688 1826 1584 C 1825.904 1604.518 1826.668 1617.299 1823 1642 C 1815.375 1673.5 1807.725 1695.749 1805 1707 C 1800.125 1727.125 1800.5 1755.5 1794 1759 Q 1787.5 1762.5 1773 1762 L 1746 1645 L 1757 1550 Z "
			id="Ear"
			fill="rgb(233,198,174)"
		/><mask id="_mask_Yt3ZG7nllPs7LP5wPI1iVQcmE8NPidVk"
			><path
				d=" M 1756 1996 C 1777 1941.667 1782.134 1888.854 1783 1884 Q 1792 1844.333 1793 1793 C 1793.167 1790.429 1793.01 1758.99 1793 1758 C 1792.667 1726.333 1783.311 1645.703 1782 1635 C 1774 1569.667 1773.724 1552.704 1753 1468 C 1744.065 1431.48 1708.667 1258.333 1691 1226 C 1672.956 1192.975 1648.667 1144.333 1626 1118 C 1600.857 1088.789 1545.935 1037.376 1486 1015 C 1436 996.333 1394.08 997.507 1364 995 C 1340 993 1301.333 991 1264 990 C 1239.34 989.339 1154.5 980.1 1116 985 C 1079.333 989.667 1064.547 989.452 1028 1009 C 999.333 1024.333 944.917 1070.627 919 1100 C 894 1128.333 854.667 1200.333 843 1223 C 831.6 1245.149 793.568 1345.923 790 1356 C 786.432 1366.077 775.333 1395 771 1423 C 758.612 1503.042 751.997 1587.493 751 1600 C 750.003 1612.507 734.963 1782.576 740 1829 C 747.667 1899.667 762.134 1965.853 781 2019 C 803.474 2082.312 832.925 2120.824 854 2145 C 877.896 2172.411 955.46 2239.993 970 2251 C 997.546 2271.853 1056.67 2310.675 1083 2320 C 1155 2345.5 1167.454 2346.613 1193 2351.984 C 1223.638 2358.427 1260.006 2352.606 1277.499 2351.984 C 1357.5 2345 1380.151 2326.88 1482 2288 C 1513.613 2275.932 1565.85 2232.276 1579 2224 C 1592.15 2215.724 1624 2190 1654 2158 C 1690.022 2119.577 1734.699 2051.113 1756 1996 Z "
				id="Face"
				fill="white"
				stroke="none"
			/></mask
		><path
			d=" M 1756 1996 C 1777 1941.667 1782.134 1888.854 1783 1884 Q 1792 1844.333 1793 1793 C 1793.167 1790.429 1793.01 1758.99 1793 1758 C 1792.667 1726.333 1783.311 1645.703 1782 1635 C 1774 1569.667 1773.724 1552.704 1753 1468 C 1744.065 1431.48 1708.667 1258.333 1691 1226 C 1672.956 1192.975 1648.667 1144.333 1626 1118 C 1600.857 1088.789 1545.935 1037.376 1486 1015 C 1436 996.333 1394.08 997.507 1364 995 C 1340 993 1301.333 991 1264 990 C 1239.34 989.339 1154.5 980.1 1116 985 C 1079.333 989.667 1064.547 989.452 1028 1009 C 999.333 1024.333 944.917 1070.627 919 1100 C 894 1128.333 854.667 1200.333 843 1223 C 831.6 1245.149 793.568 1345.923 790 1356 C 786.432 1366.077 775.333 1395 771 1423 C 758.612 1503.042 751.997 1587.493 751 1600 C 750.003 1612.507 734.963 1782.576 740 1829 C 747.667 1899.667 762.134 1965.853 781 2019 C 803.474 2082.312 832.925 2120.824 854 2145 C 877.896 2172.411 955.46 2239.993 970 2251 C 997.546 2271.853 1056.67 2310.675 1083 2320 C 1155 2345.5 1167.454 2346.613 1193 2351.984 C 1223.638 2358.427 1260.006 2352.606 1277.499 2351.984 C 1357.5 2345 1380.151 2326.88 1482 2288 C 1513.613 2275.932 1565.85 2232.276 1579 2224 C 1592.15 2215.724 1624 2190 1654 2158 C 1690.022 2119.577 1734.699 2051.113 1756 1996 Z "
			id="Face"
			fill="rgb(233,198,174)"
		/><path
			d=" M 1756 1996 C 1777 1941.667 1782.134 1888.854 1783 1884 Q 1792 1844.333 1793 1793 C 1793.167 1790.429 1793.01 1758.99 1793 1758 C 1792.667 1726.333 1783.311 1645.703 1782 1635 C 1774 1569.667 1773.724 1552.704 1753 1468 C 1744.065 1431.48 1708.667 1258.333 1691 1226 C 1672.956 1192.975 1648.667 1144.333 1626 1118 C 1600.857 1088.789 1545.935 1037.376 1486 1015 C 1436 996.333 1394.08 997.507 1364 995 C 1340 993 1301.333 991 1264 990 C 1239.34 989.339 1154.5 980.1 1116 985 C 1079.333 989.667 1064.547 989.452 1028 1009 C 999.333 1024.333 944.917 1070.627 919 1100 C 894 1128.333 854.667 1200.333 843 1223 C 831.6 1245.149 793.568 1345.923 790 1356 C 786.432 1366.077 775.333 1395 771 1423 C 758.612 1503.042 751.997 1587.493 751 1600 C 750.003 1612.507 734.963 1782.576 740 1829 C 747.667 1899.667 762.134 1965.853 781 2019 C 803.474 2082.312 832.925 2120.824 854 2145 C 877.896 2172.411 955.46 2239.993 970 2251 C 997.546 2271.853 1056.67 2310.675 1083 2320 C 1155 2345.5 1167.454 2346.613 1193 2351.984 C 1223.638 2358.427 1260.006 2352.606 1277.499 2351.984 C 1357.5 2345 1380.151 2326.88 1482 2288 C 1513.613 2275.932 1565.85 2232.276 1579 2224 C 1592.15 2215.724 1624 2190 1654 2158 C 1690.022 2119.577 1734.699 2051.113 1756 1996 Z "
			id="Face"
			fill="rgb(233,198,174)"
			mask="url(#_mask_Yt3ZG7nllPs7LP5wPI1iVQcmE8NPidVk)"
			vector-effect="non-scaling-stroke"
			stroke-width="2"
			stroke="rgb(167,152,143)"
			stroke-linejoin="miter"
			stroke-linecap="square"
			stroke-miterlimit="3"
		/><path
			d=" M 943 1076 C 914.451 1108.347 890.545 1151.497 865 1193 C 818.167 1291.5 778.833 1395.5 774 1419.713 C 771.152 1431.809 768.367 1440.905 769 1447 L 761 1443 L 751 1411 C 739.016 1390.24 739.026 1369.583 751 1349 C 749.444 1334.512 753.454 1318.189 763 1300 L 774 1278 L 786 1227 Q 800.433 1169.342 795 1146 C 787.219 1125.112 787.229 1103.788 795 1082 Q 811.037 1050.091 822 1044 C 827.708 1040.829 854.282 1024.655 863 1001 C 871.025 979.226 854.5 970.5 851 966 C 839.564 951.297 858.95 929.816 872 917 C 888.023 901.263 908.695 897.737 916 894 C 929.255 887.22 924.167 858.833 955 839 C 967.956 830.666 1022.167 802.833 1038 799 C 1047.622 796.67 1065.356 773.902 1078 778 C 1090.644 782.098 1117.155 800.183 1129 795 C 1140.845 789.817 1169.476 805.55 1176 810 C 1182.524 814.45 1213.033 806.857 1234 800 C 1254.967 793.143 1273.264 809.439 1303 821 Q 1332.736 832.561 1353 833 Q 1357.931 822.334 1372 814 C 1386.069 805.666 1416.142 820.485 1431 819 C 1445.858 817.515 1439.744 812.897 1470 821 Q 1500.256 829.103 1515 845 C 1542.903 855.507 1555.832 872.789 1573 880 C 1606.833 862.833 1618.758 877.335 1622 881 C 1634.054 894.055 1630.334 907.762 1629 912 C 1626.227 920.808 1632.793 934.755 1640 941 C 1647.207 947.245 1662.421 946.644 1669 952 C 1675.579 957.356 1674.225 972.945 1668 978 Q 1661.775 983.055 1678 1004 L 1692 1024 C 1693.367 1039.348 1698.665 1054.332 1706 1065 C 1713.335 1075.668 1725.706 1082.02 1739 1088 Q 1753.422 1110.144 1748 1115 Q 1736.833 1125 1747 1142 C 1758.922 1154.912 1768.883 1155.953 1774.952 1168 C 1780.641 1179.294 1780.74 1198.475 1778 1209 C 1784.001 1226.168 1789.449 1240.283 1790 1245 Q 1791.715 1259.697 1787 1275 C 1789.005 1280.992 1796.801 1297.108 1801 1314.153 C 1804.57 1328.647 1800.4 1343.813 1804 1354 C 1805.234 1372.502 1800.083 1379.08 1799 1399 C 1786.833 1443 1785.4 1485.538 1781 1504 L 1762 1558 C 1752 1471 1741.667 1391 1713 1328 C 1673.947 1204.588 1629.285 1133.924 1607 1106 C 1547.469 1028.504 1476.767 1020.397 1411 1005 C 1320.733 986.892 1255.644 1006.978 1212 1007 C 1210.464 1006.341 1142.555 1002.724 1141 1002 C 1127 996.517 1076.5 998.167 1047 1002 C 1021.833 1009.167 981.919 1031.903 943 1076 Z "
			id="Hair"
			fill="rgb(81,22,21)"
		/><g id="Full Left Shirt"
			><path
				d=" M 0 3408 L 0 3322 Q 44.902 3237.082 48 3227 C 51.098 3216.918 83.691 3130.537 81 3115 C 76.842 3090.99 141.086 2856.345 153 2818 C 166.49 2774.583 184.363 2733.505 217 2699 C 240.859 2672.022 236.048 2672.212 316 2599 C 331.512 2584.795 366.259 2559.747 430 2530 C 481.352 2508.689 656.7 2443.343 744 2399 C 750.175 2397.029 762.755 2393.803 766 2378 C 769.833 2359.333 885.618 2226.299 887 2228 Q 889.167 2230.667 894 2249 Q 891 2262.25 894 2265 C 897 2267.75 907.5 2292.75 904 2301 Q 900.5 2309.25 888 2384 Q 880 2460.25 888 2483 Q 896 2505.75 915 2547 Q 935.167 2617.167 937 2627 Q 976.5 2704.25 977 2729 Q 977.5 2753.75 1014 2818 Q 1038.375 2895.5 1032 2959 Q 1025.625 3022.5 993 3201 Q 973.125 3311.75 969 3316 C 964.875 3320.25 955.625 3391.5 952 3399 Q 948.375 3406.5 947 3408 L 0 3408 Z "
				id="Shirt Left"
				fill="rgb(220 38 38)"
				vector-effect="non-scaling-stroke"
				stroke-width="1"
				stroke="rgb(0,0,0)"
				stroke-linejoin="miter"
				stroke-linecap="square"
				stroke-miterlimit="3"
			/><path
				d=" M 41 3408 Q 57.971 3368.785 60 3356 C 62.029 3343.215 79.825 3270.815 86 3256 C 92.175 3241.185 91.477 3245.22 104 3249 C 116.523 3252.78 182.288 3285.684 201 3293 C 219.712 3300.316 246.114 3312.495 259 3318 C 271.886 3323.505 299.737 3324.901 309 3330 C 318.263 3335.099 365.214 3352.147 380 3350 C 394.786 3347.853 431.562 3347.915 441 3356 C 450.438 3364.085 464.576 3365.596 472 3366 C 479.424 3366.404 496.952 3358.64 505 3366 Q 513.048 3373.36 515 3381 L 508 3408 L 41 3408 Z "
				id="Pocket"
				fill="rgb(220 38 38)"
				vector-effect="non-scaling-stroke"
				stroke-width="1"
				stroke="rgb(0,0,0)"
				stroke-linejoin="miter"
				stroke-linecap="square"
				stroke-miterlimit="3"
			/><path
				d=" M 764 3408 L 796 3280 L 845 3121 L 886 2971 L 917 2868 L 923 2797 L 923 2782 Q 953.97 2803.242 966 2812 C 978.03 2820.758 1021.061 2881.939 1021 2893 Q 1020.939 2904.061 1031 2971 L 1001 3155 Q 952.758 3348.182 951 3365 Q 949.242 3381.818 951 3408 L 764 3408 Z "
				id="Button Section"
				fill="rgb(220 38 38)"
				vector-effect="non-scaling-stroke"
				stroke-width="1"
				stroke="rgb(0,0,0)"
				stroke-linejoin="miter"
				stroke-linecap="square"
				stroke-miterlimit="3"
			/><path
				d=" M 886 2230 Q 812.892 2311.547 805 2321 C 797.108 2330.453 759.472 2384.821 758 2393 Q 756.528 2401.179 743 2403 Q 680.227 2438.531 672 2450 C 663.773 2461.469 571.329 2512.849 559 2526 C 546.671 2539.151 499.909 2582.037 503 2589 Q 526.778 2592.037 546 2594 C 565.222 2595.963 586.893 2590.878 612 2594 C 637.107 2597.122 645.473 2593.429 661 2586 C 676.527 2578.571 679.763 2557.226 688 2565 Q 696.237 2572.774 693 2589 Q 698.052 2615.138 707 2627 C 715.948 2638.862 717.472 2652.993 737 2661 Q 756.528 2669.007 772 2677 Q 839.21 2719.514 857 2736 C 874.79 2752.486 948.862 2799.253 964 2815 C 979.138 2830.747 1019.441 2881.861 1019 2905 C 1018.559 2928.139 1031.166 2967.049 1031 2976 C 1030.834 2984.951 1033.452 2917.563 1031 2898 C 1029.767 2888.166 1020.575 2842.157 1011 2818 C 1007.922 2810.235 970.092 2690.825 966 2684 C 961.908 2677.175 920.172 2588.515 915 2574 C 909.828 2559.485 873.229 2476.969 875 2466 C 876.771 2455.031 885.912 2336.903 891 2328 C 896.088 2319.097 904.062 2292.002 901 2284 Q 896.088 2271.163 886 2230 Z "
				id="Collour"
				fill="rgb(220 38 38)"
				vector-effect="non-scaling-stroke"
				stroke-width="1"
				stroke="rgb(0,0,0)"
				stroke-linejoin="miter"
				stroke-linecap="square"
				stroke-miterlimit="3"
			/></g
		><g id="Full Right Shirt"
			><path
				d=" M 2556 3408 Q 2557.333 2745.667 2556 2743 C 2554.931 2740.863 2535.461 2737 2536 2733 C 2537.419 2722.475 2463.94 2659.915 2439 2658 C 2405.389 2655.42 2403.25 2666.068 2386 2663 C 2368.75 2659.932 2340.795 2644.432 2339 2635 C 2337.205 2625.568 2323.295 2584.977 2311 2578 C 2298.705 2571.023 2271.517 2569.13 2261 2571 C 2246 2573.667 2238 2581 2228 2575 C 2218.718 2569.431 2168.523 2540.841 2155 2533 C 2141.477 2525.159 2090.795 2518.659 2075 2506 C 2059.205 2493.341 1986.295 2459.977 1968 2453 C 1949.705 2446.023 1925.705 2435.341 1910 2424 C 1894.295 2412.659 1865 2404.333 1851 2399 C 1844.225 2396.419 1826.205 2368.477 1817 2351 C 1807.795 2333.523 1788.659 2324.023 1788 2314 C 1787.341 2303.977 1778.568 2278.977 1769 2274 C 1759.432 2269.023 1756.068 2263.568 1756 2253 C 1755.932 2242.432 1742.667 2218.333 1736 2208 C 1729.936 2198.601 1715.886 2160.023 1709 2157 Q 1692.523 2140.568 1691 2147 Q 1670.333 2193.667 1667 2204 C 1664.53 2211.656 1656.977 2227.432 1664 2239 Q 1671.023 2250.568 1670 2269 Q 1665.386 2299.023 1654 2314 C 1642.614 2328.977 1568.159 2430.386 1548 2449 C 1527.841 2467.614 1437.886 2598.977 1409 2610 C 1380.114 2621.023 1348.614 2649.341 1351 2656 Q 1338.068 2671.068 1323 2679 C 1307.932 2686.932 1290.869 2700.029 1281 2709 Q 1270 2719 1201 2727 Q 1108.886 2762.75 1107 2772 C 1105.114 2781.25 1033.25 2801.295 1026 2814 C 1018.75 2826.705 1002.25 2827.659 998 2834 L 919 3408 L 2556 3408 Z "
				id="Shirt Right"
				fill="rgb(220 38 38)"
				vector-effect="non-scaling-stroke"
				stroke-width="1"
				stroke="rgb(0,0,0)"
				stroke-linejoin="miter"
				stroke-linecap="square"
				stroke-miterlimit="3"
			/><path
				d=" M 1013 2824 Q 1017 2808.121 1046 2798 C 1075 2787.879 1123.849 2760.667 1157 2747 C 1190.151 2733.333 1254.394 2721.939 1270 2714 C 1285.606 2706.061 1292.394 2682.848 1314 2674 C 1335.606 2665.152 1361.909 2641.273 1373 2632 C 1384.091 2622.727 1452.212 2556.424 1478 2532 C 1503.788 2507.576 1558.939 2425.515 1570 2412 C 1581.061 2398.485 1655.424 2312.364 1669 2288 C 1682.576 2263.636 1686.576 2247.697 1677 2239 Q 1667.424 2230.303 1660 2221 Q 1663.849 2169.455 1677 2162 Q 1690.151 2154.545 1699 2147 Q 1727.909 2170 1731 2185 C 1734.091 2200 1744.212 2224.545 1749 2235 C 1753.788 2245.455 1743.97 2254.303 1761 2262 C 1778.03 2269.697 1783.788 2292.242 1790 2309 C 1796.212 2325.758 1842.576 2402.788 1855 2412 C 1867.424 2421.212 1888.394 2471.515 1887 2485 C 1885.606 2498.485 1849 2687.515 1837 2718 C 1825 2748.485 1791.364 2870.485 1790 2886 C 1788.636 2901.515 1778.818 2924.061 1761 2909 C 1743.182 2893.939 1706.515 2876.848 1690 2871 C 1673.485 2865.152 1651.727 2862.242 1627 2844 C 1602.273 2825.758 1546.091 2801.879 1531 2782 C 1515.909 2762.121 1481 2746.364 1478 2755 Q 1458.212 2806.727 1431 2817 C 1403.788 2827.273 1347.182 2844.727 1327 2836 C 1306.818 2827.273 1185.727 2832.848 1169 2824 C 1152.273 2815.152 1106.212 2814.303 1080 2817 C 1053.788 2819.697 1032.636 2831.091 1022 2836 Q 1011.364 2840.909 999 2836 L 1013 2824 Z "
				id="right collour"
				fill="rgb(220 38 38)"
				vector-effect="non-scaling-stroke"
				stroke-width="1"
				stroke="rgb(0,0,0)"
				stroke-linejoin="miter"
				stroke-linecap="square"
				stroke-miterlimit="3"
			/></g
		><path
			d=" M 1044 1972 C 1057.054 1976.733 1080.691 1983.267 1088 1978 C 1095.309 1972.733 1124.337 1960.797 1140 1957 C 1155.663 1953.203 1175.836 1949.736 1183 1955 C 1193.219 1962.509 1205.101 1965.934 1218 1961 C 1230.899 1956.066 1244.767 1948.091 1263 1946 C 1281.233 1943.909 1310.708 1954.719 1323 1957 C 1335.292 1959.281 1356.354 1967.699 1366 1970 C 1375.646 1972.301 1398.314 1974.562 1407 1972 C 1415.686 1969.438 1428.808 1975.983 1419 1982 C 1405.363 1990.366 1377.923 2006.718 1350 2013 C 1322.077 2019.282 1268.591 2033.855 1254 2029 C 1239.409 2024.145 1218.278 2022.639 1210 2024 C 1201.722 2025.361 1170.553 2030.208 1160 2029 C 1149.447 2027.792 1120.828 2017.659 1109 2013 C 1097.172 2008.341 1076.084 2002.326 1069 1995 C 1061.916 1987.674 1030.946 1967.267 1044 1972 Z "
			id="lips2"
			fill="rgb(233,174,174)"
		/><g opacity="0.32"
			><path
				d=" M 1050 1975 L 1082 1983 L 1115 1987 L 1178 1990 L 1241 1987 L 1320 1980 L 1374 1975 L 1386 1973 L 1385 1975 L 1343 1980 L 1289 1985 L 1238 1990 L 1179 1993 L 1115 1990 L 1082 1986 L 1050 1975 Z "
				id="lips1"
				fill="rgb(170,0,0)"
			/></g
		><path
			d=" M 1146 1859 C 1138.394 1860.459 1125.135 1858.782 1118 1863 C 1110.865 1867.218 1079.182 1881.759 1070 1887 C 1060.818 1892.241 1022.547 1906.922 1015 1913 C 1007.453 1919.078 978.582 1953.931 972 1965 C 965.418 1976.069 947.418 2042.102 945 2052 C 942.582 2061.897 937.617 2112.177 938 2118 C 938.383 2123.823 951.165 2183.481 952 2192 C 952.835 2200.519 965.57 2224.347 972 2232 C 978.43 2239.653 1009.656 2276.499 1015 2279 C 1020.344 2281.501 1040.567 2303.036 1048 2305 C 1055.433 2306.964 1077.532 2320.958 1084 2323 C 1090.468 2325.042 1120.865 2331.732 1140 2339 Q 1172.25 2351.25 1226 2357 Q 1283.208 2352.304 1320 2349 C 1378.303 2343.764 1406.18 2332.739 1409 2331 C 1415.011 2327.295 1443.428 2312.927 1460 2300 C 1481.442 2283.274 1508.15 2250.72 1513 2244 C 1517.85 2237.28 1519.512 2201.953 1523 2197 C 1526.488 2192.047 1531.193 2133.825 1531 2128 C 1530.807 2122.175 1529.632 2048.466 1527 2041 C 1524.368 2033.534 1514.831 1990.964 1511 1983 C 1507.169 1975.036 1494.612 1951.746 1486 1946 C 1477.388 1940.254 1430.604 1911.033 1424 1905 C 1417.396 1898.967 1388.211 1883.99 1380 1881 Q 1371.789 1878.01 1337 1869 Q 1311.413 1856.2 1301 1854 C 1290.587 1851.8 1278.874 1849.719 1267 1852 C 1255.935 1854.126 1239.341 1851.55 1238 1865 C 1237.56 1869.411 1239.374 1872.955 1241 1877 C 1243.752 1883.845 1254.074 1888.967 1253 1894 C 1251.926 1899.033 1260.254 1905.426 1265 1911 Q 1269.192 1915.924 1278 1924 Q 1294.347 1929.746 1299 1929 C 1303.653 1928.254 1321.257 1929.306 1326 1931 C 1330.743 1932.694 1345.861 1940.734 1351 1942 Q 1356.139 1943.266 1374 1946 L 1401 1958 L 1424 1978 L 1436 1998 L 1460 2032 Q 1472.25 2051.25 1475 2063 Q 1476.75 2076.75 1475 2099 Q 1475.317 2136.988 1472 2145 C 1468.683 2153.012 1467.087 2167.206 1460 2180 C 1452.913 2192.794 1447.941 2210.33 1432 2216 C 1420.01 2220.265 1402.254 2210.919 1397 2213 C 1391.746 2215.081 1355.036 2234.105 1348 2227 Q 1340.964 2219.895 1320 2204 Q 1305.467 2164.253 1301 2156 C 1296.533 2147.747 1283.172 2134.023 1282 2124 C 1280.828 2113.977 1269.75 2086.75 1260 2080 C 1258.223 2078.77 1232.101 2074.247 1226 2082 C 1220.707 2088.727 1222.009 2096.78 1221 2105 C 1219.148 2120.083 1227.404 2132.24 1223 2148 C 1220.152 2158.193 1212.663 2171.39 1208 2178 C 1196.29 2194.599 1190.266 2208.761 1173 2216 C 1152.964 2224.4 1134.806 2206.622 1114 2210 C 1097.522 2212.675 1086.957 2227.014 1070 2227 C 1031.973 2226.969 1020.791 2186.348 1005 2156 C 997.54 2141.663 991.779 2128.972 989 2113 C 986.397 2098.041 986.794 2085.001 989 2070 Q 991.829 2050.759 1007 2018 L 1032 1983 Q 1040.694 1972.891 1046 1968 Q 1056.066 1958.72 1078 1946 Q 1095.44 1941.758 1105 1940 C 1118.25 1937.563 1130.802 1941.33 1143 1935 Q 1153.753 1929.42 1167 1911 Q 1182.552 1897.432 1181 1887 C 1180.147 1881.265 1179.583 1876.683 1173 1873 C 1166.417 1869.317 1153.606 1857.541 1146 1859 Z "
			id="Bokkie"
			fill="rgb(99,27,26)"
		/><g id="Nose"
			><path
				d=" M 1336 1709 Q 1342.519 1724.401 1353 1744 L 1358 1776 L 1348 1809 L 1325 1819 L 1304 1830 L 1285 1833 L 1277 1836 L 1292 1840 L 1315 1833 L 1348 1819 L 1361 1799 L 1366 1771 L 1361 1737 Q 1329.481 1693.599 1336 1709 Z "
				id="Path"
				fill="rgb(167,152,143)"
			/><path
				d=" M 1117 1664 L 1103 1693 L 1095 1716 L 1085 1733 L 1074 1750 Q 1072.666 1764.318 1074 1776 C 1075.334 1787.682 1081.573 1800.436 1089 1809 Q 1096.427 1817.564 1113 1830 L 1117 1825 L 1103 1809 L 1089 1793 L 1081 1771 L 1081 1753 L 1095 1733 L 1110 1699 L 1117 1672 L 1117 1664 Z "
				id="Path"
				fill="rgb(167,152,143)"
			/><path
				d=" M 1159 1809 L 1139 1799 L 1123 1793 L 1117 1796 L 1113 1804 L 1123 1811 L 1134 1811 L 1145 1814 L 1159 1809 Z "
				id="Path"
				fill="rgb(167,152,143)"
			/><path
				d=" M 1262 1804 L 1277 1796 L 1296 1793 L 1304 1799 L 1296 1809 L 1279 1811 L 1262 1804 Z "
				id="Path"
				fill="rgb(167,152,143)"
			/><path
				d=" M 1186 1826 Q 1194.75 1830.75 1206 1837 L 1223 1831 L 1235 1821 L 1223 1821 L 1212 1826 L 1201 1826 Q 1177.25 1821.25 1186 1826 Z "
				id="Path"
				fill="rgb(167,152,143)"
			/></g
		><path
			d=" M 859 1394 C 862.55 1377.922 877.922 1371.447 898 1363 C 914.208 1356.182 926.474 1351.017 943 1349 C 959.869 1346.941 974.188 1350.252 991 1352 C 1020.847 1355.103 1047.784 1353.479 1075 1367 C 1088.398 1373.656 1106.75 1373 1110 1391 C 1110.899 1395.977 1111.477 1397.122 1108 1399 C 1098.446 1404.159 1080.088 1399.961 1065 1399 C 1038.595 1397.318 1013.801 1384.346 991 1385.918 C 966.979 1387.575 953.197 1385.083 930 1385.918 C 926.609 1386.041 904.53 1391.155 901 1391 C 878.489 1390.013 856.875 1403.625 859 1394 Z "
			id="eyebrow2"
            class="eyebrows"
			fill="rgb(99,27,26)"
		/><path
			d=" M 1549.167 1379 C 1569.567 1386.226 1586.5 1383 1586 1375 Q 1585.122 1360.947 1537.177 1339.202 Q 1486.691 1338.324 1459.726 1342.571 C 1433.548 1346.694 1413.378 1358.772 1387.094 1362.334 C 1369.885 1364.666 1354.606 1359.909 1337.787 1364.749 Q 1322.499 1369.149 1298.14 1385.918 Q 1284.469 1398.779 1286.492 1408.129 Q 1290.379 1426.093 1324.537 1408.902 L 1401 1392 L 1453.457 1382 L 1510.911 1375 Q 1533.761 1373.543 1549.167 1379 Z "
			id="eyebrow1"
            class="eyebrows"
			fill="rgb(81,22,21)"
		/><path
			d=" M 766 1539 Q 765.447 1505.871 769 1500 C 772.553 1494.129 771.869 1477.511 781 1470 C 790.131 1462.489 805.363 1451.167 824 1447 C 856.927 1439.637 900.872 1428.212 940 1427 C 964.172 1426.251 1028.998 1428.428 1047 1433 C 1073.136 1439.637 1108.456 1444.108 1118 1453 C 1132.901 1466.883 1136.417 1476.551 1141 1492 C 1147.358 1513.432 1137.832 1556.949 1136 1564 C 1126.749 1599.597 1113.618 1636.88 1107 1649 C 1100.382 1661.12 1095.489 1667.412 1087 1674 C 1069.621 1687.487 1027.742 1698.957 1008 1703 C 976.457 1709.46 929.876 1712.975 894 1709 C 869.374 1706.271 828.323 1696.696 813 1684 C 797.677 1671.304 781.447 1639.828 777 1614 Q 772.553 1588.172 766 1539 L 766 1539 Z  M 703 1451 L 706 1521 L 727 1530 Q 735.503 1540.35 739 1549 C 742.497 1557.65 749.815 1611.225 756 1621 C 762.185 1630.775 781.877 1682.475 792 1689 C 830.56 1713.854 878.9 1718.764 911 1720 C 944.027 1721.271 1018.379 1712.913 1037 1707 C 1055.621 1701.087 1093.351 1687.487 1106 1678 C 1118.362 1668.728 1142.879 1609.975 1148 1596 C 1153.121 1582.025 1168.005 1520.349 1169 1512 C 1169.995 1503.651 1178.13 1482.662 1192 1481 C 1205.87 1479.338 1209.692 1476.537 1225 1481 C 1240.308 1485.463 1252.005 1502.475 1256 1516 C 1259.995 1529.525 1273.13 1563.975 1275 1573 C 1276.87 1582.025 1298.318 1634.1 1304 1639 C 1309.682 1643.9 1336.418 1675.018 1345 1678 C 1359.658 1683.093 1437.001 1703.307 1539 1697 C 1558.57 1695.79 1615.131 1684.913 1626 1678 C 1636.869 1671.087 1657.881 1664.537 1668 1650 C 1678.119 1635.463 1706.819 1552.974 1707 1530 C 1707.181 1507.026 1711.007 1488.787 1718 1489 Q 1724.993 1489.213 1728 1498 L 1747 1516 L 1764 1530 L 1770 1540 L 1776 1512 L 1770 1481 L 1734 1407 Q 1719.381 1400.787 1710 1400 C 1700.619 1399.213 1548.582 1387.251 1498 1383 C 1449.519 1378.925 1289.569 1405.302 1266 1428 C 1245.048 1448.178 1221.639 1443.153 1208 1447 C 1200.956 1448.987 1162.75 1445.5 1155 1440 C 1147.25 1434.5 1114.25 1422.5 1102 1421 C 1089.75 1419.5 981.367 1403.603 940 1407 C 916.142 1408.959 782.75 1428 775 1431 Q 767.25 1434 703 1451 L 703 1451 Z  M 1277 1469 Q 1281.667 1449.333 1291 1443 C 1300.333 1436.667 1343 1418 1359 1415 C 1375 1412 1437 1404.667 1446 1404 C 1455 1403.333 1561.667 1402.667 1571 1404 C 1580.333 1405.333 1638.333 1412 1644 1415 C 1649.667 1418 1662.333 1428 1667 1435 C 1671.667 1442 1679 1474.667 1680 1481 C 1681 1487.333 1679 1542 1678 1550 C 1677 1558 1661 1627.333 1658 1633 C 1655 1638.667 1635 1657.333 1628 1660 C 1621 1662.667 1579 1672 1569 1674 C 1559 1676 1501.667 1684 1487 1685 C 1472.333 1686 1412.333 1682 1402 1679 C 1391.667 1676 1364.333 1672.667 1356 1667 C 1347.667 1661.333 1336.333 1652 1332 1645 C 1327.667 1638 1299 1555.333 1307 1576 C 1315 1596.667 1293.637 1545.086 1286 1521 C 1281.667 1507.333 1274.442 1487.74 1275 1483 Q 1275.667 1477.333 1277 1469 Z "
			fill-rule="evenodd"
			id="Eye Wear"
			fill="rgb(99,76,86)"
		/><g id="left eye"
			><g opacity="0.8"
				><ellipse
					vector-effect="non-scaling-stroke"
					cx="1014"
					cy="1528"
					rx="38"
					ry="30.000000000000227"
					id="iris"
					fill="rgb(84,33,0)"
				/></g
			><ellipse
				vector-effect="non-scaling-stroke"
				cx="1013"
				cy="1527.5"
				rx="15"
				ry="14.5"
				id="Pupil"
				fill="rgb(35,28,31)"
			/><g opacity="0.81"
				><ellipse
					vector-effect="non-scaling-stroke"
					cx="1001.7500000000003"
					cy="1518"
					rx="4.75"
					ry="5.000000000000227"
					id="highlight"
					fill="rgb(255,255,255)"
				/></g
			><path
				d=" M 891 1514 Q 891.863 1511.487 908 1494 L 936 1477 L 976 1466 L 1011 1466 L 1041 1473 L 1063 1483 L 1080 1492 L 1072 1480 L 1053 1470 L 1030 1464 L 1004 1461 L 976 1461 L 949 1467 L 930 1473 L 911 1481 L 900 1492 L 891 1507 Q 890.137 1516.513 891 1514 Z "
				id="Path"
				fill="rgb(40,11,10)"
			/><path
				d=" M 892 1550 L 908 1545 L 923 1538 L 931 1530 L 952 1520 L 976 1509 L 1001 1506 L 1020 1502 L 1038 1506 L 1053 1512 L 1071 1519 L 1083 1524 L 1097 1532 L 1104 1536 L 1108 1531 L 1090 1522 L 1069 1512 L 1047 1502 L 1025 1496 L 1000 1498 L 974 1502 L 945 1514 L 925 1527 L 906 1538 L 892 1550 Z "
				id="Path"
				fill="rgb(40,11,10)"
			/><path
				d=" M 936 1546 Q 944.901 1549.303 952 1551 C 959.099 1552.697 989.153 1557.545 995 1556 C 1000.847 1554.455 1014.302 1553.061 1019 1552 Q 1023.698 1550.939 1041 1546 L 1061 1537 L 1075 1531 L 1082 1527 L 1083 1525 L 1080 1534 L 1061 1544 L 1025 1556 L 1004 1561 L 976 1561 L 954 1558 L 931 1549 L 923 1543 L 921 1539 L 936 1546 Z "
				id="Path"
				fill="rgb(40,11,10)"
			/></g
		><g id="right eye"
			><g opacity="0.8"
				><ellipse
					vector-effect="non-scaling-stroke"
					cx="1464"
					cy="1524.9999999999977"
					rx="38"
					ry="30.000000000000227"
					id="iris"
					fill="rgb(84,33,0)"
				/></g
			><ellipse
				vector-effect="non-scaling-stroke"
				cx="1464"
				cy="1523.499999999999"
				rx="15"
				ry="14.5"
				id="puple"
				fill="rgb(35,28,31)"
			/><g opacity="0.81"
				><ellipse
					vector-effect="non-scaling-stroke"
					cx="1453.75"
					cy="1513.9999999999995"
					rx="4.75"
					ry="5.000000000000227"
					id="highlight"
					fill="rgb(255,255,255)"
				/></g
			><path
				d=" M 1386 1475 L 1407 1465 L 1436 1457 L 1465 1454 L 1489 1457 L 1515 1465 L 1545 1475 L 1564 1487 L 1583 1501 L 1592 1517 L 1588 1517 L 1580 1507 L 1561 1493 L 1541 1481 L 1513 1470 L 1489 1463 L 1465 1459 L 1436 1461 L 1407 1470 L 1386 1475 Z "
				id="Path"
				fill="rgb(0,0,0)"
				vector-effect="non-scaling-stroke"
				stroke-width="0.1"
				stroke="rgb(0,0,0)"
				stroke-linejoin="miter"
				stroke-linecap="square"
				stroke-miterlimit="3"
			/><path
				d=" M 1353 1524 L 1370 1517 L 1394 1505 L 1422 1493 L 1463 1493 L 1489 1495 L 1508 1501 L 1527 1511 L 1547 1524 L 1564 1531 L 1573 1535 L 1564 1538 L 1545 1531 L 1527 1517 L 1506 1507 L 1487 1501 L 1463 1497 L 1427 1497 L 1407 1505 L 1386 1513 L 1379 1519 L 1361 1524 L 1353 1524 Z "
				id="Path"
				fill="rgb(0,0,0)"
				vector-effect="non-scaling-stroke"
				stroke-width="0"
				stroke="rgb(0,0,0)"
				stroke-linejoin="miter"
				stroke-linecap="square"
				stroke-miterlimit="3"
			/><path
				d=" M 1370 1525 L 1383 1530 L 1401 1542 L 1417 1552 L 1448 1554 L 1469 1554 L 1491 1548 L 1510.911 1542 L 1531 1535 L 1543 1530 L 1547 1528 L 1543 1538 L 1531 1542 L 1513 1545 L 1500 1552 L 1481 1554 L 1460 1558 L 1438 1558 L 1419 1556 L 1401 1548 L 1389 1540 L 1370 1525 Z "
				id="Path"
				fill="rgb(0,0,0)"
				vector-effect="non-scaling-stroke"
				stroke-width="0"
				stroke="rgb(0,0,0)"
				stroke-linejoin="miter"
				stroke-linecap="square"
				stroke-miterlimit="3"
			/></g
		><path
			d=" M 1826 1579 L 1820 1571 L 1811 1573 L 1806 1581 L 1806 1585 L 1811 1579 L 1816 1575 L 1822 1577 L 1826 1579 Z "
			id="Path"
			fill="rgb(167,152,143)"
		/><g opacity="0.25"
			><path
				d=" M 1277 1469 Q 1281.667 1449.333 1291 1443 C 1300.333 1436.667 1343 1418 1359 1415 C 1375 1412 1437 1404.667 1446 1404 C 1455 1403.333 1561.667 1402.667 1571 1404 C 1580.333 1405.333 1638.333 1412 1644 1415 C 1649.667 1418 1662.333 1428 1667 1435 C 1671.667 1442 1679 1474.667 1680 1481 C 1681 1487.333 1679 1542 1678 1550 C 1677 1558 1661 1627.333 1658 1633 C 1655 1638.667 1635 1657.333 1628 1660 C 1621 1662.667 1579 1672 1569 1674 C 1559 1676 1501.667 1684 1487 1685 C 1472.333 1686 1412.333 1682 1402 1679 C 1391.667 1676 1364.333 1672.667 1356 1667 C 1347.667 1661.333 1336.333 1652 1332 1645 C 1327.667 1638 1299 1555.333 1307 1576 C 1315 1596.667 1293.637 1545.086 1286 1521 C 1281.667 1507.333 1274.442 1487.74 1275 1483 Q 1275.667 1477.333 1277 1469 Z "
				id="Glasses Right"
				fill="rgb(185,187,189)"
				vector-effect="0"
				stroke="rgb(0,0,0)"
				stroke-linejoin="miter"
				stroke-linecap="square"
				stroke-miterlimit="3"
			/></g
		><g opacity="0.25"
			><path
				d=" M 766 1539 Q 765.447 1505.871 769 1500 C 772.553 1494.129 771.869 1477.511 781 1470 C 790.131 1462.489 805.363 1451.167 824 1447 C 856.927 1439.637 900.872 1428.212 940 1427 C 964.172 1426.251 1028.998 1428.428 1047 1433 C 1073.136 1439.637 1108.456 1444.108 1118 1453 C 1132.901 1466.883 1136.417 1476.551 1141 1492 C 1147.358 1513.432 1137.832 1556.949 1136 1564 C 1126.749 1599.597 1113.618 1636.88 1107 1649 C 1100.382 1661.12 1095.489 1667.412 1087 1674 C 1069.621 1687.487 1027.742 1698.957 1008 1703 C 976.457 1709.46 929.876 1712.975 894 1709 C 869.374 1706.271 828.323 1696.696 813 1684 C 797.677 1671.304 781.447 1639.828 777 1614 Q 772.553 1588.172 766 1539 Z "
				id="Glasses Left"
				fill="rgb(185,187,189)"
				vector-effect="non-scaling-stroke"
				stroke-width="0"
				stroke="rgb(0,0,0)"
				stroke-linejoin="miter"
				stroke-linecap="square"
				stroke-miterlimit="3"
			/></g
		></g
	></svg>
